<?xml version="1.0" encoding="UTF-8"?>
<svg id="Laag_1" xmlns="http://www.w3.org/2000/svg" version="1.1" viewBox="0 0 810.4 1000">
  <!-- Generator: Adobe Illustrator 29.8.2, SVG Export Plug-In . SVG Version: 2.1.1 Build 3)  -->
  <path d="M18.8,424.7l697.2,478.8c30,20.6,47.4,54.8,46.5,91.3v5.1c-.1,0,3.8-3.3,3.8-3.3,8.4-7.2,15.8-15.4,22.1-24.5,39.3-57.3,24.7-135.9-32.5-175.2l-108.5-74.5h124.2v-169.8c0-14.3-7-27.6-18.8-35.7L0,0v111.1c0,14.3,7,27.6,18.8,35.7l695.2,477.6h-197.5c-7.9,0-15.5-2.4-21.9-6.8L0,277.9v111.1c0,14.3,7,27.6,18.8,35.7Z" fill="#fafafa"/>
  <path d="M18.8,702.6l229,157.3c7.3,5,15.7,7.6,24.5,7.6h181.5L0,555.8v111.1c0,14.3,7,27.6,18.8,35.7Z" fill="#fafafa"/>
</svg>